<svg xmlns="http://www.w3.org/2000/svg" width="800" height="600" viewBox="0 0 800 600"><rect width="100%" height="100%" fill="#F4EDDF"/><path fill="#FF8633" d="M235.395 255.92h13.45l-36.21 89.65h-15.06l-36.21-89.65h13.39q2.17 0 3.53 1.05 1.37 1.06 2.05 2.73l21.14 54.68q1.06 2.67 2.02 5.86.96 3.2 1.83 6.67.74-3.47 1.61-6.67.87-3.19 1.92-5.86l21.02-54.68q.49-1.43 1.95-2.6 1.46-1.18 3.57-1.18m32.42 50.53h28.89q0-2.98-.83-5.61-.84-2.64-2.51-4.62-1.68-1.99-4.25-3.13-2.57-1.15-5.98-1.15-6.64 0-10.45 3.78t-4.87 10.73m39.06 9.24h-39.37q.37 4.89 1.74 8.46 1.36 3.56 3.59 5.89 2.24 2.32 5.3 3.47 3.07 1.15 6.79 1.15t6.42-.87 4.71-1.92q2.02-1.06 3.54-1.92 1.52-.87 2.94-.87 1.92 0 2.85 1.42l4.41 5.58q-2.55 2.98-5.71 4.99-3.16 2.02-6.6 3.23t-7.01 1.7q-3.56.5-6.91.5-6.63 0-12.34-2.2-5.7-2.2-9.92-6.51-4.21-4.31-6.63-10.67-2.42-6.35-2.42-14.72 0-6.51 2.11-12.24 2.11-5.74 6.04-9.99 3.94-4.24 9.61-6.72 5.68-2.48 12.81-2.48 6.01 0 11.09 1.92 5.09 1.92 8.75 5.61 3.65 3.69 5.73 9.05t2.08 12.25q0 3.47-.75 4.68-.74 1.21-2.85 1.21m30.38-62.25v35.34q3.72-3.47 8.19-5.64 4.46-2.17 10.47-2.17 5.21 0 9.24 1.76 4.03 1.77 6.73 4.96 2.7 3.2 4.09 7.63 1.4 4.43 1.4 9.76v40.49h-15.32v-40.49q0-5.82-2.66-9.02-2.67-3.19-8.13-3.19-3.96 0-7.44 1.8-3.47 1.8-6.57 4.9v46h-15.31v-92.13zm55.12 28.52h15.38v63.61h-15.38zm17.48-18.54q0 1.98-.8 3.72-.81 1.74-2.14 3.04t-3.13 2.08q-1.8.77-3.85.77-1.98 0-3.75-.77-1.76-.78-3.07-2.08-1.3-1.3-2.07-3.04-.78-1.74-.78-3.72 0-2.05.78-3.84.77-1.8 2.07-3.1 1.31-1.31 3.07-2.08 1.77-.78 3.75-.78 2.05 0 3.85.78 1.8.77 3.13 2.08 1.33 1.3 2.14 3.1.8 1.79.8 3.84m63.12 26.41-4.03 5.58q-.68.87-1.33 1.37-.65.49-1.89.49-1.18 0-2.3-.71-1.11-.71-2.66-1.61t-3.69-1.61q-2.14-.72-5.3-.72-4.03 0-7.07 1.46t-5.06 4.18q-2.01 2.73-3 6.61-.99 3.87-.99 8.77 0 5.08 1.08 9.05 1.09 3.97 3.13 6.67 2.05 2.69 4.96 4.09 2.92 1.39 6.57 1.39 3.66 0 5.92-.9 2.27-.89 3.82-1.98 1.55-1.08 2.69-1.98 1.15-.9 2.58-.9 1.86 0 2.79 1.42l4.4 5.58q-2.54 2.98-5.52 4.99-2.97 2.02-6.17 3.23-3.19 1.21-6.57 1.7-3.38.5-6.73.5-5.89 0-11.09-2.2-5.21-2.2-9.12-6.42-3.9-4.21-6.17-10.32-2.26-6.11-2.26-13.92 0-7.01 2.01-12.99 2.02-5.98 5.93-10.35 3.9-4.37 9.67-6.85 5.76-2.48 13.27-2.48 7.13 0 12.49 2.29t9.64 6.57m49.66-7.87h15.32v63.61h-9.37q-3.03 0-3.84-2.79l-1.05-5.08q-3.91 3.96-8.62 6.41t-11.1 2.45q-5.21 0-9.21-1.77-4-1.76-6.72-4.99-2.73-3.22-4.13-7.65-1.39-4.44-1.39-9.77v-40.42h15.31v40.42q0 5.83 2.7 9.02 2.7 3.2 8.09 3.2 3.97 0 7.44-1.77t6.57-4.87zm30.63-28.52h15.31v92.13h-15.31zm42.72 53.01h28.89q0-2.98-.84-5.61-.83-2.64-2.51-4.62-1.67-1.99-4.25-3.13-2.57-1.15-5.98-1.15-6.63 0-10.45 3.78-3.81 3.78-4.86 10.73m39.06 9.24h-39.37q.37 4.89 1.73 8.46 1.37 3.56 3.6 5.89 2.23 2.32 5.3 3.47t6.79 1.15 6.42-.87q2.69-.87 4.71-1.92 2.01-1.06 3.53-1.92 1.52-.87 2.95-.87 1.92 0 2.85 1.42l4.4 5.58q-2.54 2.98-5.7 4.99-3.16 2.02-6.61 3.23-3.44 1.21-7 1.7-3.57.5-6.91.5-6.64 0-12.34-2.2-5.71-2.2-9.92-6.51-4.22-4.31-6.64-10.67-2.41-6.35-2.41-14.72 0-6.51 2.1-12.24 2.11-5.74 6.05-9.99 3.94-4.24 9.61-6.72t12.8-2.48q6.02 0 11.1 1.92t8.74 5.61 5.74 9.05q2.07 5.36 2.07 12.25 0 3.47-.74 4.68t-2.85 1.21"/></svg>